<svg xmlns="http://www.w3.org/2000/svg" xmlns:xlink="http://www.w3.org/1999/xlink" version="1.1" x="0px" y="0px" viewBox="0 0 100 125" style="enable-background:new 0 0 100 100;" xml:space="preserve"><g><path d="M74.2,71c0.2-0.5,0.4-1.1,0.6-1.8c0.5-1.5,1.1-3.4,2.3-5.2c2.7-4,3.8-6.8,3.4-8.6c-0.2-0.8-0.6-1.3-1.3-1.7   c-0.7-0.4-1.5-0.4-2.5-0.1c0.1-2.5,0.9-5,1.7-7.1c0.4-1.2,0.9-2.4,1.1-3.4c0.5-2.4,2.1-10.6,1.5-16.4c-0.6-5.4-6-14.1-13.1-18.6   c-7-4.4-22.4-4.2-30.4-1.1C29.4,10.2,22.2,18.8,21.6,26c-0.1,1.6,0.2,3.8,0.8,6.5c0.2,0.9,0.3,1.8,0.2,2.7   c-0.3,2.9-0.8,8.3-0.3,11.5c0.5,2.8,0.9,5.3,1.2,6.9c-0.9-0.3-1.7-0.2-2.4,0.2c-0.6,0.4-1.1,1-1.2,1.7c-0.4,1.8,0.6,4.5,3.3,8.6   c1.2,1.8,1.8,3.7,2.2,5.2c0.2,0.7,0.4,1.3,0.6,1.8c0.4,1,1.1,1.8,1.9,2.2c0.2,2.4,1,13.5-6,19.3c-0.3,0.2-0.4,0.6-0.3,1   c0.1,0.4,0.4,0.7,0.7,0.7c0.2,0.1,2.9,0.7,6.1,0.7c3.5,0,7.7-0.7,10-3.8c2.1,2.5,5,4.4,11.5,4.4c6.5,0,9.4-1.9,11.5-4.4   c2.3,3,6.5,3.7,10,3.7c3.2,0,5.9-0.6,6.1-0.7c0.4-0.1,0.7-0.4,0.7-0.7c0.1-0.4,0-0.8-0.3-1c-6.9-5.7-6.3-16.5-6-19.2   C72.9,72.9,73.7,72.2,74.2,71z M78.3,55.5c0.2,0.1,0.3,0.2,0.3,0.4c0.2,0.7,0,2.5-3.1,7c-1.4,2.1-2.1,4.2-2.6,5.7   c-0.2,0.6-0.4,1.2-0.6,1.6c-0.3,0.7-0.7,1.2-1.6,1.3c0.5-2,1.4-3.9,2.4-5.9l0.6-1.2c1.4-2.9,0.9-4.8,0.3-6.8c0,0,0,0,0,0   c0,0,0,0,0,0C76.6,55.5,77.9,55.3,78.3,55.5z M24.3,46.4c-0.5-3.1,0-8.7,0.3-11c0.1-1.1,0.1-2.3-0.2-3.5c-0.6-2.4-0.9-4.5-0.8-5.8   c0.5-6.3,7.3-14.4,14.7-17.2C45.8,6,60.5,5.9,66.9,9.8c6.5,4.1,11.7,12.3,12.2,17.1c0.6,5.6-1.1,14.1-1.5,15.8   c-0.2,0.9-0.6,2-1,3.1c-0.9,2.5-2,5.5-1.8,8.8c-0.4,0.3-0.8,0.6-1.2,0.9c0-0.2-0.1-0.3-0.1-0.5c-0.1-0.9,0-2.1,0.1-3.5   c0.4-4,0.9-9.6-2.5-14.9c-4.4-6.8-16.6-3.9-19-3.3c-1.4,0.4-2.8,0.4-4.2,0c-2.4-0.7-14.6-3.5-19,3.3c-3.4,5.3-2.9,10.9-2.5,14.9   c0.1,1.4,0.2,2.6,0.1,3.5c0,0.1,0,0.2-0.1,0.3c-0.3-0.2-0.5-0.4-0.7-0.5c0,0,0,0,0-0.1C25.8,54.7,25.1,50.7,24.3,46.4z M44.5,56.2   c0.4,0.3,1,0.3,1.3,0c2.1-1.9,5.4-3.6,8.3-4.7C45.3,59.6,39.2,71.1,36,78.1c1.5-8.5,5.4-16.8,5.4-16.9c0.2-0.4,0.1-0.8-0.2-1.1   c-0.3-0.3-0.7-0.4-1.1-0.3c-2,0.8-4.6,2.5-6.3,3.9C36.6,47.3,44,37.1,45.7,34.9c0.8,0.2,1.4,0.3,1.7,0.4c1.7,0.5,3.5,0.5,5.2,0   c1-0.3,7.4-1.9,12.3-0.6C55,39.9,44.8,54.2,44.3,54.8C44,55.3,44.1,55.8,44.5,56.2z M31.8,75.4c0-4.2-1.5-7.4-3.1-10.7l-0.6-1.2   c-1.1-2.2-0.7-3.6-0.2-5.4c0.2-0.9,0.5-1.8,0.7-3c0.1-1.1,0-2.4-0.1-3.9c-0.3-3.7-0.8-8.9,2.2-13.6c1.8-2.7,5.3-3.5,8.8-3.5   c1.4,0,2.9,0.1,4.1,0.3c-1.7,2.2-4.9,7.1-7.7,14.5c-2.1,0.2-5.9,1.9-6.4,6.7c-0.1,0.5,0.3,1,0.9,1.1c0,0,0.1,0,0.1,0   c0.5,0,0.9-0.4,1-0.9c0.3-3.1,2.2-4.2,3.5-4.7c-1.5,4.2-2.7,9.1-3.5,14.7c-0.1,0.4,0.1,0.8,0.5,1c0.4,0.2,0.8,0.2,1.1-0.1   c0,0,2.7-2.3,5.4-3.9c-1.6,3.9-4.4,11.4-4.9,18.5C32.4,79.5,31.8,77.8,31.8,75.4z M27.3,68.7c-0.5-1.5-1.1-3.7-2.5-5.7   c-3-4.5-3.2-6.4-3-7c0.1-0.3,0.2-0.4,0.3-0.4c0.3-0.2,1.5,0,3.9,2c0,0.1,0,0.1,0,0.2c-0.6,2-1.1,3.8,0.3,6.8l0.6,1.2   c1,2,1.9,3.9,2.4,5.9c-0.7-0.1-1.1-0.6-1.4-1.3C27.7,69.8,27.5,69.3,27.3,68.7z M24.7,92.6c4-4.3,5.1-10.1,5.4-14.4   c0.5,2.5,1.8,4.5,3.6,6.8c0,0,0,0,0,0.1c0.5,0.6,1,1.3,1.6,2c0.5,0.7,1,1.3,1.5,2c0.1,0.2,0.2,0.3,0.4,0.5   C34.8,93.4,28,93,24.7,92.6z M50,93.5c-7.4,0-9.2-2.5-11.6-5.8c-0.5-0.7-1-1.4-1.6-2.1c-0.5-0.5-0.9-1-1.3-1.5   c1.4-3.6,10.1-24.8,24.1-34.8c0.4-0.3,0.5-0.8,0.3-1.2c-0.2-0.4-0.7-0.7-1.2-0.5c-0.3,0.1-4.9,1.4-9.2,3.7   c4.2-5.1,11.3-12.9,17.7-15.5c0.8,0.5,1.5,1.1,2,1.9c3,4.8,2.6,9.9,2.2,13.6c-0.1,1.5-0.3,2.9-0.1,3.9c0.1,1.2,0.4,2.1,0.7,3   c0.5,1.8,0.9,3.1-0.2,5.4l-0.6,1.2c-1.2,2.5-2.3,4.8-2.9,7.6c0,0,0,0,0,0c0,0,0,0,0,0c-0.2,1-0.3,2-0.3,3.1c0,4.1-1.8,6.3-5.1,10.2   c-0.6,0.7-1.1,1.4-1.6,2.1C59.2,91,57.4,93.5,50,93.5z M75.2,92.6c-3.3,0.4-9.9,0.8-12.4-3.1c0.1-0.2,0.3-0.4,0.4-0.6   c0.5-0.7,1-1.3,1.5-2c2.5-3,4.4-5.3,5.1-8.3C70.1,82.9,71.3,88.5,75.2,92.6z"/><path d="M49.9,72.5c1.1,0,2.4-0.2,3.8-1c0.5-0.3,0.7-0.9,0.4-1.3c-0.3-0.5-0.9-0.7-1.3-0.4c-3.1,1.6-5.3,0.1-5.4,0.1   c-0.5-0.3-1.1-0.2-1.4,0.2c-0.3,0.5-0.2,1.1,0.2,1.4C46.3,71.5,47.7,72.5,49.9,72.5z"/><path d="M63,50.9c0.2,0,4.3,0.4,4.7,5c0.1,0.5,0.5,0.9,1,0.9c0,0,0.1,0,0.1,0c0.5-0.1,1-0.5,0.9-1.1c-0.5-5-4.5-6.6-6.6-6.8   c-0.5,0-1,0.4-1.1,0.9C62,50.4,62.4,50.9,63,50.9z"/><path d="M52.7,78.2c-0.1,0-0.2,0-0.3,0c-0.1,0-1.3,0.1-2.4,0.6c-1.1-0.5-2.2-0.6-2.4-0.6c-0.1,0-0.2,0-0.3,0   c-2.9,0.8-5.4,2.2-5.7,2.6c-0.3,0.3-0.3,0.8-0.1,1.2c0.2,0.3,2,2.7,8.5,2.7s8.3-2.5,8.5-2.7c0.3-0.4,0.2-0.9-0.1-1.2   C58.1,80.4,55.7,79,52.7,78.2z M50,82.8c-3.2,0-5-0.6-5.9-1.2c0.8-0.4,2.1-1,3.5-1.4c0.4,0,1.2,0.2,1.9,0.6c0,0,0.1,0,0.1,0   c0.1,0,0.1,0,0.2,0.1c0.1,0,0.1,0,0.2,0c0.1,0,0.1,0,0.2,0c0.1,0,0.1,0,0.2-0.1c0,0,0.1,0,0.1,0c0.7-0.4,1.5-0.5,1.9-0.6   c1.4,0.4,2.7,1,3.5,1.4C55,82.1,53.2,82.8,50,82.8z"/><path d="M32.8,16.9c0.2,0,0.5-0.1,0.7-0.3c0.3-0.2,0.6-0.5,0.9-0.7c0.5-0.3,0.6-0.9,0.3-1.4c-0.3-0.5-0.9-0.6-1.4-0.3   c-0.4,0.3-0.8,0.6-1.1,0.9c-0.4,0.4-0.4,1,0,1.4C32.3,16.8,32.6,16.9,32.8,16.9z"/><path d="M26.9,28.7C26.9,28.7,27,28.7,26.9,28.7c0.6-0.1,1-0.5,1-1.1c0-0.2-0.4-4.9,4-8.7c0.4-0.4,0.5-1,0.1-1.4   c-0.4-0.4-1-0.5-1.4-0.1c-5.1,4.5-4.7,10.1-4.6,10.4C26,28.3,26.4,28.7,26.9,28.7z"/></g></svg>
